<svg width="67" height="67" viewBox="0 0 67 67" fill="none" xmlns="http://www.w3.org/2000/svg">
<rect x="42" y="47.0115" width="6.78895" height="27.9247" rx="3.39447" transform="rotate(-44.6941 42 47.0115)" fill="white"/>
<rect x="38.3748" y="46.9969" width="4.21332" height="12.0913" rx="2.10666" transform="rotate(-135.379 38.3748 46.9969)" fill="white"/>
<path d="M22.6046 0C34.6638 0.000253575 44.4396 9.7767 44.4396 21.8359C44.4393 33.895 34.6636 43.6706 22.6046 43.6709C10.5454 43.6709 0.76893 33.8951 0.768677 21.8359C0.768677 9.77654 10.5452 0 22.6046 0ZM22.6036 3.2959C12.3647 3.29614 4.06458 11.597 4.06458 21.8359C4.06483 32.0747 12.3649 40.3748 22.6036 40.375C32.8426 40.375 41.1434 32.0748 41.1437 21.8359C41.1437 11.5968 32.8427 3.2959 22.6036 3.2959Z" fill="white"/>
<path d="M10.3403 14.4413C10.6969 14.8394 10.7722 15.4115 10.569 15.9058C9.87913 17.5849 9.49833 19.4236 9.49829 21.3514C9.49829 29.2722 15.9193 35.6931 23.8401 35.6932C25.2092 35.6932 26.5331 35.5004 27.787 35.1418C28.3008 34.9949 28.8609 35.1328 29.2172 35.531V35.531C29.8194 36.2037 29.5796 37.2679 28.7151 37.5282C27.1716 37.993 25.5351 38.243 23.8401 38.243C14.5111 38.243 6.94849 30.6803 6.94849 21.3514C6.94852 18.997 7.43104 16.7555 8.30163 14.7194C8.6561 13.8905 9.73869 13.7698 10.3403 14.4413V14.4413Z" fill="white"/>
</svg>
