<svg width="389" height="78" viewBox="0 0 389 78" fill="none" xmlns="http://www.w3.org/2000/svg">
<rect x="42" y="52.5803" width="6.78895" height="27.9247" rx="3.39447" transform="rotate(-44.6941 42 52.5803)" fill="white"/>
<rect x="38.3748" y="52.5657" width="4.21332" height="12.0913" rx="2.10666" transform="rotate(-135.379 38.3748 52.5657)" fill="white"/>
<path d="M22.6046 5.56879C34.6638 5.56904 44.4396 15.3455 44.4396 27.4047C44.4393 39.4637 34.6636 49.2394 22.6046 49.2397C10.5454 49.2397 0.76893 39.4639 0.768677 27.4047C0.768677 15.3453 10.5452 5.56879 22.6046 5.56879ZM22.6036 8.86469C12.3647 8.86492 4.06458 17.1658 4.06458 27.4047C4.06483 37.6435 12.3649 45.9435 22.6036 45.9438C32.8426 45.9438 41.1434 37.6436 41.1437 27.4047C41.1437 17.1656 32.8427 8.86469 22.6036 8.86469Z" fill="white"/>
<path d="M10.3403 20.0101C10.6969 20.4082 10.7722 20.9802 10.569 21.4746C9.87913 23.1537 9.49833 24.9924 9.49829 26.9202C9.49829 34.841 15.9193 41.2619 23.8401 41.262C25.2092 41.262 26.5331 41.0692 27.787 40.7106C28.3008 40.5637 28.8609 40.7016 29.2172 41.0998V41.0998C29.8194 41.7725 29.5796 42.8367 28.7151 43.097C27.1716 43.5617 25.5351 43.8118 23.8401 43.8118C14.5111 43.8118 6.94849 36.2491 6.94849 26.9202C6.94852 24.5657 7.43104 22.3243 8.30163 20.2882C8.6561 19.4592 9.73869 19.3386 10.3403 20.0101V20.0101Z" fill="white"/>
<path d="M113.825 31V8.6H119.009V31H113.825ZM132.325 31V8.6H136.613L149.829 24.728H147.749V8.6H152.869V31H148.613L135.365 14.872H137.445V31H132.325ZM170.969 18.68H181.721V22.84H170.969V18.68ZM171.353 31H166.169V8.6H183.097V12.76H171.353V31ZM205.268 31.384C203.497 31.384 201.854 31.096 200.34 30.52C198.846 29.944 197.545 29.1333 196.436 28.088C195.348 27.0427 194.494 25.816 193.876 24.408C193.278 23 192.98 21.464 192.98 19.8C192.98 18.136 193.278 16.6 193.876 15.192C194.494 13.784 195.358 12.5573 196.468 11.512C197.577 10.4667 198.878 9.656 200.372 9.08C201.865 8.504 203.486 8.216 205.236 8.216C207.006 8.216 208.628 8.504 210.1 9.08C211.593 9.656 212.884 10.4667 213.972 11.512C215.081 12.5573 215.945 13.784 216.564 15.192C217.182 16.5787 217.492 18.1147 217.492 19.8C217.492 21.464 217.182 23.0107 216.564 24.44C215.945 25.848 215.081 27.0747 213.972 28.12C212.884 29.144 211.593 29.944 210.1 30.52C208.628 31.096 207.017 31.384 205.268 31.384ZM205.236 26.968C206.238 26.968 207.156 26.7973 207.988 26.456C208.841 26.1147 209.588 25.624 210.228 24.984C210.868 24.344 211.358 23.5867 211.7 22.712C212.062 21.8373 212.244 20.8667 212.244 19.8C212.244 18.7333 212.062 17.7627 211.7 16.888C211.358 16.0133 210.868 15.256 210.228 14.616C209.609 13.976 208.873 13.4853 208.02 13.144C207.166 12.8027 206.238 12.632 205.236 12.632C204.233 12.632 203.305 12.8027 202.452 13.144C201.62 13.4853 200.884 13.976 200.244 14.616C199.604 15.256 199.102 16.0133 198.74 16.888C198.398 17.7627 198.228 18.7333 198.228 19.8C198.228 20.8453 198.398 21.816 198.74 22.712C199.102 23.5867 199.593 24.344 200.212 24.984C200.852 25.624 201.598 26.1147 202.452 26.456C203.305 26.7973 204.233 26.968 205.236 26.968ZM229.388 31V8.6H239.084C241.089 8.6 242.817 8.93067 244.268 9.592C245.718 10.232 246.838 11.16 247.628 12.376C248.417 13.592 248.812 15.0427 248.812 16.728C248.812 18.392 248.417 19.832 247.628 21.048C246.838 22.2427 245.718 23.16 244.268 23.8C242.817 24.44 241.089 24.76 239.084 24.76H232.268L234.572 22.488V31H229.388ZM243.628 31L238.028 22.872H243.564L249.228 31H243.628ZM234.572 23.064L232.268 20.632H238.796C240.396 20.632 241.59 20.2907 242.38 19.608C243.169 18.904 243.564 17.944 243.564 16.728C243.564 15.4907 243.169 14.5307 242.38 13.848C241.59 13.1653 240.396 12.824 238.796 12.824H232.268L234.572 10.36V23.064ZM260.919 31V8.6H265.207L274.743 24.408H272.471L281.847 8.6H286.103L286.167 31H281.303L281.271 16.056H282.167L274.679 28.632H272.343L264.695 16.056H265.783V31H260.919ZM304.25 17.624H315.034V21.656H304.25V17.624ZM304.634 26.84H316.826V31H299.482V8.6H316.41V12.76H304.634V26.84ZM336.31 31.384C334.518 31.384 332.801 31.1493 331.158 30.68C329.516 30.1893 328.193 29.56 327.19 28.792L328.95 24.888C329.91 25.5707 331.041 26.136 332.342 26.584C333.665 27.0107 334.998 27.224 336.342 27.224C337.366 27.224 338.188 27.128 338.806 26.936C339.446 26.7227 339.916 26.4347 340.214 26.072C340.513 25.7093 340.662 25.2933 340.662 24.824C340.662 24.2267 340.428 23.7573 339.958 23.416C339.489 23.0533 338.87 22.7653 338.102 22.552C337.334 22.3173 336.481 22.104 335.542 21.912C334.625 21.6987 333.697 21.4427 332.758 21.144C331.841 20.8453 330.998 20.4613 330.23 19.992C329.462 19.5227 328.833 18.904 328.342 18.136C327.873 17.368 327.638 16.3867 327.638 15.192C327.638 13.912 327.98 12.7493 328.662 11.704C329.366 10.6373 330.412 9.79467 331.798 9.176C333.206 8.536 334.966 8.216 337.078 8.216C338.486 8.216 339.873 8.38667 341.238 8.728C342.604 9.048 343.809 9.53867 344.854 10.2L343.254 14.136C342.209 13.5387 341.164 13.1013 340.118 12.824C339.073 12.5253 338.049 12.376 337.046 12.376C336.044 12.376 335.222 12.4933 334.582 12.728C333.942 12.9627 333.484 13.272 333.206 13.656C332.929 14.0187 332.79 14.4453 332.79 14.936C332.79 15.512 333.025 15.9813 333.494 16.344C333.964 16.6853 334.582 16.9627 335.35 17.176C336.118 17.3893 336.961 17.6027 337.878 17.816C338.817 18.0293 339.745 18.2747 340.662 18.552C341.601 18.8293 342.454 19.2027 343.222 19.672C343.99 20.1413 344.609 20.76 345.078 21.528C345.569 22.296 345.814 23.2667 345.814 24.44C345.814 25.6987 345.462 26.8507 344.758 27.896C344.054 28.9413 342.998 29.784 341.59 30.424C340.204 31.064 338.444 31.384 336.31 31.384ZM86.5063 70L96.4903 47.6H101.61L111.626 70H106.186L97.9943 50.224H100.042L91.8183 70H86.5063ZM91.4983 65.2L92.8743 61.264H104.394L105.802 65.2H91.4983ZM127.452 70L117.788 47.6H123.388L131.836 67.44H128.54L137.116 47.6H142.268L132.572 70H127.452ZM156.906 56.624H167.69V60.656H156.906V56.624ZM157.29 65.84H169.482V70H152.138V47.6H169.066V51.76H157.29V65.84ZM181.607 70V47.6H186.791V65.776H198.023V70H181.607ZM208.919 70V47.6H214.103V65.776H225.335V70H208.919ZM233.413 70L243.397 47.6H248.517L258.533 70H253.093L244.901 50.224H246.949L238.725 70H233.413ZM238.405 65.2L239.781 61.264H251.301L252.709 65.2H238.405ZM268.857 70V47.6H273.145L286.361 63.728H284.281V47.6H289.401V70H285.145L271.897 53.872H273.977V70H268.857ZM307.468 56.624H318.252V60.656H307.468V56.624ZM307.852 65.84H320.044V70H302.7V47.6H319.628V51.76H307.852V65.84ZM332.169 70V47.6H342.345C344.777 47.6 346.921 48.0693 348.777 49.008C350.633 49.9253 352.084 51.216 353.129 52.88C354.174 54.544 354.697 56.5173 354.697 58.8C354.697 61.0613 354.174 63.0347 353.129 64.72C352.084 66.384 350.633 67.6853 348.777 68.624C346.921 69.5413 344.777 70 342.345 70H332.169ZM337.353 65.744H342.089C343.582 65.744 344.873 65.4667 345.961 64.912C347.07 64.336 347.924 63.5253 348.521 62.48C349.14 61.4347 349.449 60.208 349.449 58.8C349.449 57.3707 349.14 56.144 348.521 55.12C347.924 54.0747 347.07 53.2747 345.961 52.72C344.873 52.144 343.582 51.856 342.089 51.856H337.353V65.744ZM363.35 70L373.334 47.6H378.454L388.47 70H383.03L374.838 50.224H376.886L368.662 70H363.35ZM368.342 65.2L369.718 61.264H381.238L382.646 65.2H368.342Z" fill="white"/>
</svg>
